<svg width="19" height="20" viewBox="0 0 19 20" fill="none" xmlns="http://www.w3.org/2000/svg">
<path d="M14.8438 17.125C15.8275 17.125 16.625 16.3275 16.625 15.3438C16.625 14.36 15.8275 13.5625 14.8438 13.5625C13.86 13.5625 13.0625 14.36 13.0625 15.3438C13.0625 16.3275 13.86 17.125 14.8438 17.125Z" stroke="white" stroke-width="1.5" stroke-linecap="round" stroke-linejoin="round"/>
<path d="M5.34375 4.65625H12.4688C13.0986 4.65625 13.7027 4.90647 14.1481 5.35187C14.5935 5.79727 14.8438 6.40136 14.8438 7.03125C14.8438 7.66114 14.5935 8.26523 14.1481 8.71063C13.7027 9.15603 13.0986 9.40625 12.4688 9.40625H5.34375C4.55639 9.40625 3.80128 9.71903 3.24453 10.2758C2.68778 10.8325 2.375 11.5876 2.375 12.375C2.375 13.1624 2.68778 13.9175 3.24453 14.4742C3.80128 15.031 4.55639 15.3438 5.34375 15.3438H13.0625" stroke="white" stroke-width="1.5" stroke-linecap="round" stroke-linejoin="round"/>
</svg>
