<svg width="24" height="24" viewBox="0 0 24 24" fill="none" xmlns="http://www.w3.org/2000/svg">
<path d="M20.25 20.25V10.8318C20.25 10.7273 20.2282 10.624 20.1859 10.5284C20.1436 10.4328 20.0818 10.3471 20.0045 10.2768L12.504 3.45793C12.3659 3.33242 12.186 3.26287 11.9995 3.26288C11.8129 3.26288 11.633 3.33244 11.4949 3.45797L3.99545 10.2769C3.91814 10.3471 3.85637 10.4328 3.8141 10.5284C3.77183 10.6239 3.75 10.7273 3.75 10.8318V20.25" stroke="#fff" stroke-width="1.5" stroke-linecap="round" stroke-linejoin="round"/>
<path d="M1.5 20.25H22.5" stroke="#fff" stroke-width="1.5" stroke-linecap="round" stroke-linejoin="round"/>
<path d="M14.2495 20.2492V14.9992C14.2495 14.8003 14.1705 14.6095 14.0298 14.4689C13.8892 14.3282 13.6984 14.2492 13.4995 14.2492H10.4995C10.3006 14.2492 10.1098 14.3282 9.96918 14.4689C9.82853 14.6095 9.74951 14.8003 9.74951 14.9992V20.2492" stroke="#fff" stroke-width="1.5" stroke-linecap="round" stroke-linejoin="round"/>
</svg>
